# xmcd
#
# Track frame offsets: 
#        150
#        14596
#        26834
#        38349
#        49001
#        65443
#        80061
#        92799
#        109449
#        125285
#        143949
#        155463
#        171648
#
# Disc length: 2470 seconds
#
# Revision: 0
# Processed by: cddbd v1.5.2PL0 Copyright (c) Steve Scherf et al.
# Submitted via: ExactAudioCopy v0.95b4
#
DISCID=b409a40d
DTITLE=Kenny Vance and The Planotones - Dancin' and Romancin'
DYEAR=2007
DGENRE=Doo Wop
TTITLE0=Louie Louie
TTITLE1=I Really Love You
TTITLE2=You Cheated
TTITLE3=Jeannie
TTITLE4=Why Do You Have To Go
TTITLE5=Twilight
TTITLE6=Miss Annie
TTITLE7=Girl In My Dreams
TTITLE8=The Way You Look Tonight
TTITLE9=Anyone Who Had A Heart
TTITLE10=There Goes My Baby
TTITLE11=Angel Baby
TTITLE12=Darling Lorraine
EXTD=
EXTT0=
EXTT1=
EXTT2=
EXTT3=
EXTT4=
EXTT5=
EXTT6=
EXTT7=
EXTT8=
EXTT9=
EXTT10=
EXTT11=
EXTT12=
PLAYORDER=
